<svg width="31" height="27" viewBox="0 0 31 27" fill="none" xmlns="http://www.w3.org/2000/svg">
<path d="M15.2788 24.7497C14.9817 24.7497 14.7271 24.6747 14.5149 24.5247C14.3027 24.3747 14.1435 24.1778 14.0374 23.9341C13.6342 22.8841 13.1249 21.8997 12.5095 20.981C11.9153 20.0623 11.0771 18.9841 9.99488 17.7466C8.91263 16.5092 8.03198 15.3279 7.35292 14.2029C6.69508 13.0779 6.36616 11.7186 6.36616 10.1248C6.36616 7.93109 7.22559 6.07485 8.94446 4.55611C10.6845 3.01862 12.796 2.24988 15.2788 2.24988C17.7616 2.24988 19.8624 3.01862 21.5813 4.55611C23.3214 6.07485 24.1914 7.93109 24.1914 10.1248C24.1914 11.8311 23.8201 13.256 23.0774 14.3998C22.3559 15.5248 21.5176 16.6404 20.5627 17.7466C19.4168 19.0966 18.5468 20.2216 17.9526 21.1216C17.3796 22.0029 16.9022 22.9404 16.5202 23.9341C16.4141 24.1966 16.2443 24.4028 16.0109 24.5528C15.7987 24.6841 15.5547 24.7497 15.2788 24.7497ZM15.2788 12.9373C16.1701 12.9373 16.9234 12.6654 17.5388 12.1217C18.1542 11.5779 18.4619 10.9123 18.4619 10.1248C18.4619 9.33733 18.1542 8.67171 17.5388 8.12796C16.9234 7.58421 16.1701 7.31234 15.2788 7.31234C14.3875 7.31234 13.6342 7.58421 13.0188 8.12796C12.4034 8.67171 12.0957 9.33733 12.0957 10.1248C12.0957 10.9123 12.4034 11.5779 13.0188 12.1217C13.6342 12.6654 14.3875 12.9373 15.2788 12.9373Z" fill="#E2DF73"/>
</svg>
