<svg width="31" height="27" viewBox="0 0 31 27" fill="none" xmlns="http://www.w3.org/2000/svg">
<path d="M5.09293 22.4996C4.39265 22.4996 3.79317 22.2793 3.29449 21.8387C2.79581 21.3981 2.54646 20.8684 2.54646 20.2496V6.74974C2.54646 6.13099 2.79581 5.60131 3.29449 5.16069C3.79317 4.72006 4.39265 4.49975 5.09293 4.49975H25.4647C26.165 4.49975 26.7644 4.72006 27.2631 5.16069C27.7618 5.60131 28.0111 6.13099 28.0111 6.74974V20.2496C28.0111 20.8684 27.7618 21.3981 27.2631 21.8387C26.7644 22.2793 26.165 22.4996 25.4647 22.4996H5.09293ZM15.2788 14.6247L5.09293 8.99972V20.2496H25.4647V8.99972L15.2788 14.6247ZM15.2788 12.3747L25.4647 6.74974H5.09293L15.2788 12.3747ZM5.09293 8.99972V6.74974V20.2496V8.99972Z" fill="#E2DF73"/>
</svg>
