<svg width="31" height="27" viewBox="0 0 31 27" fill="none" xmlns="http://www.w3.org/2000/svg">
<g clip-path="url(#clip0_46_113)">
<path d="M19.1622 5.62515C20.4058 5.83954 21.5487 6.37694 22.4446 7.16857C23.3406 7.9602 23.9488 8.97005 24.1914 10.0689M19.1622 1.12518C21.7459 1.3788 24.1553 2.40112 25.9946 4.0243C27.834 5.64747 28.9941 7.77503 29.2844 10.0576M28.0111 19.0351V22.41C28.0126 22.7234 27.9399 23.0335 27.7979 23.3205C27.6558 23.6076 27.4475 23.8653 27.1862 24.0771C26.9249 24.2889 26.6164 24.4502 26.2805 24.5506C25.9446 24.6509 25.5887 24.6882 25.2355 24.66C21.3175 24.2839 17.5541 23.1009 14.2475 21.2063C11.1711 19.4791 8.56292 17.1745 6.60808 14.4563C4.45629 11.5215 3.11718 8.18001 2.69925 4.70266C2.66743 4.39156 2.70928 4.07802 2.82212 3.78199C2.93496 3.48597 3.11633 3.21395 3.35467 2.98325C3.59301 2.75255 3.88311 2.56822 4.20649 2.44201C4.52988 2.3158 4.87946 2.25047 5.23299 2.25018H9.05269C9.6706 2.2448 10.2696 2.43814 10.7381 2.79415C11.2067 3.15016 11.5127 3.64455 11.5992 4.18516C11.7604 5.26523 12.0594 6.32572 12.4904 7.34639C12.6617 7.74905 12.6988 8.18667 12.5973 8.60737C12.4957 9.02808 12.2598 9.41425 11.9175 9.72013L10.3005 11.1489C12.113 13.9653 14.7523 16.2973 17.9399 17.8988L19.5569 16.4701C19.903 16.1676 20.3401 15.9592 20.8162 15.8694C21.2924 15.7797 21.7877 15.8125 22.2434 15.9638C23.3986 16.3447 24.5988 16.6089 25.8212 16.7513C26.4397 16.8284 27.0045 17.1037 27.4083 17.5248C27.8121 17.9458 28.0266 18.4833 28.0111 19.0351Z" stroke="#E2DF73" stroke-width="2" stroke-linecap="round" stroke-linejoin="round"/>
</g>
<defs>
<clipPath id="clip0_46_113">
<rect width="30.2476" height="26.7259" fill="white" transform="scale(1.01025)"/>
</clipPath>
</defs>
</svg>
