<svg width="65" height="64" viewBox="0 0 65 64" fill="none" xmlns="http://www.w3.org/2000/svg">
<path d="M32.5 58.6667C47.4577 58.6667 59.5833 46.7276 59.5833 32C59.5833 17.2724 47.4577 5.33337 32.5 5.33337C17.5423 5.33337 5.41666 17.2724 5.41666 32C5.41666 46.7276 17.5423 58.6667 32.5 58.6667Z" stroke="#E2DF73" stroke-width="4" stroke-linecap="round" stroke-linejoin="round"/>
<path d="M32.5 48C41.4746 48 48.75 40.8366 48.75 32C48.75 23.1635 41.4746 16 32.5 16C23.5254 16 16.25 23.1635 16.25 32C16.25 40.8366 23.5254 48 32.5 48Z" stroke="#E2DF73" stroke-width="4" stroke-linecap="round" stroke-linejoin="round"/>
<path d="M32.5 37.3334C35.4915 37.3334 37.9167 34.9456 37.9167 32C37.9167 29.0545 35.4915 26.6667 32.5 26.6667C29.5085 26.6667 27.0833 29.0545 27.0833 32C27.0833 34.9456 29.5085 37.3334 32.5 37.3334Z" stroke="#E2DF73" stroke-width="4" stroke-linecap="round" stroke-linejoin="round"/>
</svg>
